<svg xmlns="http://www.w3.org/2000/svg" viewBox="0 0 440 280" role="img" aria-label="GDrive Sidebar Pinner promotional tile">
  <rect width="440" height="280" rx="0" fill="#131314"/>
  <rect x="26" y="26" width="388" height="228" rx="18" fill="#1f1f1f"/>
  <rect x="54" y="62" width="118" height="156" rx="14" fill="#0f0f10"/>
  <rect x="70" y="82" width="70" height="10" rx="5" fill="#5f6368"/>
  <rect x="70" y="109" width="86" height="24" rx="12" fill="#0b57d0"/>
  <circle cx="86" cy="121" r="5" fill="#c2e7ff"/>
  <rect x="100" y="117" width="41" height="8" rx="4" fill="#c2e7ff"/>
  <rect x="70" y="148" width="12" height="9" rx="2" fill="#fbbc04"/>
  <rect x="92" y="148" width="50" height="8" rx="4" fill="#e8eaed"/>
  <rect x="70" y="173" width="12" height="9" rx="2" fill="#ea4335"/>
  <rect x="92" y="173" width="58" height="8" rx="4" fill="#e8eaed"/>
  <rect x="70" y="198" width="12" height="9" rx="2" fill="#34a853"/>
  <rect x="92" y="198" width="48" height="8" rx="4" fill="#e8eaed"/>
  <g transform="translate(179 44) scale(.78)">
    <path d="M10 37c0-6.6 5.4-12 12-12h29c4.1 0 7.9 2.1 10.1 5.6L66 38h40c6.6 0 12 5.4 12 12v54c0 6.6-5.4 12-12 12H22c-6.6 0-12-5.4-12-12V37z" fill="#fbbc04"/>
    <path d="M10 50c0-6.6 5.4-12 12-12h84c6.6 0 12 5.4 12 12v54c0 6.6-5.4 12-12 12H22c-6.6 0-12-5.4-12-12V50z" fill="#fdd663"/>
    <path d="M10 61h108v43c0 6.6-5.4 12-12 12H22c-6.6 0-12-5.4-12-12V61z" fill="#fbbc04"/>
    <path d="M10 61h36v55H22c-6.6 0-12-5.4-12-12V61z" fill="#34a853"/>
    <path d="M46 61h72v43c0 6.6-5.4 12-12 12H46V61z" fill="#4285f4"/>
    <path d="M46 61h20v55H46V61z" fill="#1a73e8" opacity=".75"/>
    <circle cx="75" cy="50" r="22" fill="#ea4335"/>
    <path d="M61 67h28l-5 28H66l-5-28z" fill="#d93025"/>
    <ellipse cx="75" cy="71" rx="25" ry="13" fill="#ea4335"/>
    <path d="M75 85l9 3-17 32c-.9 1.7-3.5 1.1-3.5-.8L64 85h11z" fill="#5f6368"/>
    <path d="M58 49c3.5-11 18.5-15.3 31-7.6-8.6 4.7-19.6 5.1-31 7.6z" fill="#ff8a80" opacity=".85"/>
  </g>
  <text x="304" y="172" fill="#ffffff" font-family="Arial, Helvetica, sans-serif" font-size="24" font-weight="700" text-anchor="middle">GDrive</text>
  <text x="304" y="202" fill="#ffffff" font-family="Arial, Helvetica, sans-serif" font-size="24" font-weight="700" text-anchor="middle">Sidebar Pinner</text>
  <text x="304" y="229" fill="#c4c7c5" font-family="Arial, Helvetica, sans-serif" font-size="14" text-anchor="middle">Pin folders. Keep colors.</text>
</svg>
